HIERARCHY
ROOT Hips
{
    OFFSET   0.000000   0.000000   0.000000
    CHANNELS 6 Xposition Yposition Zposition Zrotation Xrotation Yrotation
    JOINT Chest
    {
        OFFSET   0.000000   8.007230   0.000000
        CHANNELS 3 Zrotation Xrotation Yrotation
        JOINT Chest2
        {
            OFFSET   0.000000  22.077100   0.000000
            CHANNELS 3 Zrotation Xrotation Yrotation
            JOINT Neck
            {
                OFFSET   0.000000  23.254700   0.000000
                CHANNELS 3 Zrotation Xrotation Yrotation
                JOINT Head
                {
                    OFFSET   0.000010  14.370000   1.956610
                    CHANNELS 3 Zrotation Xrotation Yrotation
                    End Site
                    {
                        OFFSET   0.000000  19.566000   0.000000
                    }
                }
            }
            JOINT LeftCollar
            {
                OFFSET   3.911900  19.017000  -0.467063
                CHANNELS 3 Zrotation Xrotation Yrotation
                JOINT LeftShoulder
                {
                    OFFSET  10.383700   0.000000   0.000000
                    CHANNELS 3 Zrotation Xrotation Yrotation
                    JOINT LeftElbow
                    {
                        OFFSET  26.662100   0.001671   0.000522
                        CHANNELS 3 Zrotation Xrotation Yrotation
                        JOINT LeftWrist
                        {
                            OFFSET  28.869000   0.000037  -0.000114
                            CHANNELS 3 Zrotation Xrotation Yrotation
                            JOINT LeftFinger0
                            {
                                OFFSET   2.044650  -2.323450   3.252850
                                CHANNELS 3 Zrotation Xrotation Yrotation
                                JOINT LeftFinger01
                                {
                                    OFFSET   3.088140   0.000000   0.000000
                                    CHANNELS 3 Zrotation Xrotation Yrotation
                                    JOINT LeftFinger02
                                    {
                                        OFFSET   2.639460   0.000000   0.000000
                                        CHANNELS 3 Zrotation Xrotation Yrotation
                                        End Site
                                        {
                                            OFFSET   2.582190   0.000000   0.000000
                                        }
                                    }
                                }
                            }
                            JOINT LeftFinger1
                            {
                                OFFSET   8.364480   0.000000   3.252850
                                CHANNELS 3 Zrotation Xrotation Yrotation
                                JOINT LeftFinger11
                                {
                                    OFFSET   4.646930   0.000000   0.000000
                                    CHANNELS 3 Zrotation Xrotation Yrotation
                                    JOINT LeftFinger12
                                    {
                                        OFFSET   2.323470   0.000000   0.000000
                                        CHANNELS 3 Zrotation Xrotation Yrotation
                                        End Site
                                        {
                                            OFFSET   2.273050   0.000000   0.000000
                                        }
                                    }
                                }
                            }
                            JOINT LeftFinger2
                            {
                                OFFSET   8.364490   0.000016   1.078090
                                CHANNELS 3 Zrotation Xrotation Yrotation
                                JOINT LeftFinger21
                                {
                                    OFFSET   5.111620   0.000000   0.000000
                                    CHANNELS 3 Zrotation Xrotation Yrotation
                                    JOINT LeftFinger22
                                    {
                                        OFFSET   2.788150   0.000013   0.000000
                                        CHANNELS 3 Zrotation Xrotation Yrotation
                                        End Site
                                        {
                                            OFFSET   2.727660   0.000000   0.000000
                                        }
                                    }
                                }
                            }
                            JOINT LeftFinger3
                            {
                                OFFSET   7.899780   0.000016  -1.078090
                                CHANNELS 3 Zrotation Xrotation Yrotation
                                JOINT LeftFinger31
                                {
                                    OFFSET   4.646930   0.000000   0.000000
                                    CHANNELS 3 Zrotation Xrotation Yrotation
                                    JOINT LeftFinger32
                                    {
                                        OFFSET   2.323470   0.000000   0.000000
                                        CHANNELS 3 Zrotation Xrotation Yrotation
                                        End Site
                                        {
                                            OFFSET   2.273050   0.000000   0.000000
                                        }
                                    }
                                }
                            }
                            JOINT LeftFinger4
                            {
                                OFFSET   7.435080   0.000000  -3.252850
                                CHANNELS 3 Zrotation Xrotation Yrotation
                                JOINT LeftFinger41
                                {
                                    OFFSET   3.717550   0.000000   0.000000
                                    CHANNELS 3 Zrotation Xrotation Yrotation
                                    JOINT LeftFinger42
                                    {
                                        OFFSET   1.858760   0.000000   0.000000
                                        CHANNELS 3 Zrotation Xrotation Yrotation
                                        End Site
                                        {
                                            OFFSET   1.818440   0.000000   0.000000
                                        }
                                    }
                                }
                            }
                        }
                    }
                }
            }
            JOINT RightCollar
            {
                OFFSET  -3.911900  19.017000  -0.467064
                CHANNELS 3 Zrotation Xrotation Yrotation
                JOINT RightShoulder
                {
                    OFFSET -10.383700   0.000000   0.000000
                    CHANNELS 3 Zrotation Xrotation Yrotation
                    JOINT RightElbow
                    {
                        OFFSET -26.662100   0.001633   0.000260
                        CHANNELS 3 Zrotation Xrotation Yrotation
                        JOINT RightWrist
                        {
                            OFFSET -28.869000  -0.000045  -0.000080
                            CHANNELS 3 Zrotation Xrotation Yrotation
                            JOINT RightFinger0
                            {
                                OFFSET  -2.044660  -2.323490   3.252850
                                CHANNELS 3 Zrotation Xrotation Yrotation
                                JOINT RightFinger01
                                {
                                    OFFSET  -3.088140   0.000000   0.000000
                                    CHANNELS 3 Zrotation Xrotation Yrotation
                                    JOINT RightFinger02
                                    {
                                        OFFSET  -2.639450   0.000000   0.000000
                                        CHANNELS 3 Zrotation Xrotation Yrotation
                                        End Site
                                        {
                                            OFFSET  -2.582190   0.000000   0.000000
                                        }
                                    }
                                }
                            }
                            JOINT RightFinger1
                            {
                                OFFSET  -8.364480   0.000000   3.252850
                                CHANNELS 3 Zrotation Xrotation Yrotation
                                JOINT RightFinger11
                                {
                                    OFFSET  -4.646920   0.000000   0.000000
                                    CHANNELS 3 Zrotation Xrotation Yrotation
                                    JOINT RightFinger12
                                    {
                                        OFFSET  -2.323470   0.000000   0.000000
                                        CHANNELS 3 Zrotation Xrotation Yrotation
                                        End Site
                                        {
                                            OFFSET  -2.273050   0.000000   0.000000
                                        }
                                    }
                                }
                            }
                            JOINT RightFinger2
                            {
                                OFFSET  -8.364480   0.000000   1.078090
                                CHANNELS 3 Zrotation Xrotation Yrotation
                                JOINT RightFinger21
                                {
                                    OFFSET  -5.111610   0.000000   0.000000
                                    CHANNELS 3 Zrotation Xrotation Yrotation
                                    JOINT RightFinger22
                                    {
                                        OFFSET  -2.788160   0.000000   0.000000
                                        CHANNELS 3 Zrotation Xrotation Yrotation
                                        End Site
                                        {
                                            OFFSET  -2.727660   0.000000   0.000000
                                        }
                                    }
                                }
                            }
                            JOINT RightFinger3
                            {
                                OFFSET  -7.899780   0.000000  -1.078090
                                CHANNELS 3 Zrotation Xrotation Yrotation
                                JOINT RightFinger31
                                {
                                    OFFSET  -4.646930   0.000000   0.000000
                                    CHANNELS 3 Zrotation Xrotation Yrotation
                                    JOINT RightFinger32
                                    {
                                        OFFSET  -2.323470   0.000000   0.000000
                                        CHANNELS 3 Zrotation Xrotation Yrotation
                                        End Site
                                        {
                                            OFFSET  -2.273050   0.000000   0.000000
                                        }
                                    }
                                }
                            }
                            JOINT RightFinger4
                            {
                                OFFSET  -7.435090   0.000000  -3.252850
                                CHANNELS 3 Zrotation Xrotation Yrotation
                                JOINT RightFinger41
                                {
                                    OFFSET  -3.717550   0.000000   0.000000
                                    CHANNELS 3 Zrotation Xrotation Yrotation
                                    JOINT RightFinger42
                                    {
                                        OFFSET  -1.858760   0.000000   0.000000
                                        CHANNELS 3 Zrotation Xrotation Yrotation
                                        End Site
                                        {
                                            OFFSET  -1.818440   0.000000   0.000000
                                        }
                                    }
                                }
                            }
                        }
                    }
                }
            }
        }
    }
    JOINT LeftHip
    {
        OFFSET   9.782990   0.000000   0.000000
        CHANNELS 3 Zrotation Xrotation Yrotation
        JOINT LeftKnee
        {
            OFFSET  -0.000063 -41.789100   0.001657
            CHANNELS 3 Zrotation Xrotation Yrotation
            JOINT LeftAnkle
            {
                OFFSET   0.000078 -41.133200  -0.000113
                CHANNELS 3 Zrotation Xrotation Yrotation
                JOINT LeftToe
                {
                    OFFSET   0.000000  -6.358970  14.674500
                    CHANNELS 3 Zrotation Xrotation Yrotation
                    End Site
                    {
                        OFFSET   0.000000   0.000000   3.913200
                    }
                }
            }
        }
    }
    JOINT RightHip
    {
        OFFSET  -9.782990   0.000000   0.000000
        CHANNELS 3 Zrotation Xrotation Yrotation
        JOINT RightKnee
        {
            OFFSET   0.000053 -41.789200   0.000277
            CHANNELS 3 Zrotation Xrotation Yrotation
            JOINT RightAnkle
            {
                OFFSET   0.000030 -41.133200  -0.000150
                CHANNELS 3 Zrotation Xrotation Yrotation
                JOINT RightToe
                {
                    OFFSET   0.000000  -6.358960  14.674500
                    CHANNELS 3 Zrotation Xrotation Yrotation
                    End Site
                    {
                        OFFSET   0.000000   0.000000   3.913200
                    }
                }
            }
        }
    }
}
MOTION
Frames: 5
Frame Time:   0.016667
 -0.861275  89.544500   0.704622  -3.353350 -11.387000  -3.808660   0.796853   6.743820  -1.703810   1.815960  13.460000  -3.539680   2.698320  -0.227986   0.010803   4.442680  -0.459229   8.564550   0.634727   2.889420   0.700275 -74.281300  19.367400  -7.681130  -3.413390  -6.891440 -13.113100  11.853000  -6.083760  -1.496630  41.876200  26.380500 -63.484200 -16.647500   0.000000   0.000031  -3.323730   0.002169   0.000000 -25.420600   5.367310 -11.133100 -21.226200   0.005893   0.001567 -14.859100  -0.002829   0.009107 -27.955000  -0.407844   0.768584 -31.700500  -0.005047   0.005865 -21.115100  -0.005253   0.001660 -27.883400  -0.406923   0.769068 -31.280000  -0.005769   0.004264 -20.832500  -0.004580   0.001142 -29.295600  -0.425771   0.758792 -43.947700  -0.005771   0.008751 -29.269200  -0.005693  -0.000000   3.659040   3.006430   5.241380  39.387700  -0.592158  34.963900 -35.296400 -36.371300  89.782100 -48.494800  31.304800  18.834800 -54.835900  43.215100  86.309200 -19.563500  -0.000597  -0.006660 -14.781800   0.000466  -0.003041   4.111320   0.024794   0.339521   3.363970   0.000646   0.000270   2.354810  -0.000449   0.000127  89.000000   0.000000  -0.002938  93.347400  -0.012231   0.000229  70.010500  -0.002275   0.000329  88.996000  -5.006760  -0.089586  93.024400  -0.001783  -0.013181  69.768300  -0.001943   0.001385  88.984600 -10.005000  -0.176336 110.000000  -0.000267   0.003293  80.000000   0.003792   0.002423   3.139380  14.457300   2.866020   1.386520   0.026665  -1.940970  -2.198900  -3.761000   0.196386  -0.000000   0.000000  -0.000000   3.208840  12.285200  -1.114570  -1.241360   2.403870   0.207819  -0.152988  -3.884690   1.602080   0.000000   0.000000   0.000000
 -0.876818  89.544800   0.691068  -3.350280 -11.376800  -3.830100   0.795725   6.729870  -1.705290   1.813300  13.432100  -3.542230   2.695650  -0.206893   0.009819   4.435950  -0.416751   8.549060   0.625307   2.889730   0.692654 -74.287100  19.367300  -7.662570  -3.414620  -6.909540 -13.059900  11.846400  -6.048700  -1.513220  41.822900  26.341900 -63.470400 -16.657600   0.000000   0.000000  -3.328770   0.002089   0.000000 -25.418700   5.372300 -11.145300 -21.226300   0.006098   0.001564 -14.858400  -0.002762   0.009450 -27.955500  -0.397621   0.749288 -31.703200  -0.005046   0.005869 -21.119600  -0.005252   0.001661 -27.883500  -0.396674   0.749783 -31.261300  -0.005766   0.004261 -20.820000  -0.004578   0.001139 -29.295800  -0.415077   0.739745 -43.947600  -0.005777   0.008749 -29.269200  -0.005693  -0.000000   3.653840   2.996920   5.229470  39.334600  -0.629393  34.970000 -35.311400 -36.364100  89.758000 -48.359200  31.409200  18.688500 -54.580900  43.152500  86.203000 -19.470500  -0.000595  -0.006744 -14.735300   0.000477  -0.003052   4.167960   0.021811   0.291285   3.410320   0.000668   0.000260   2.387260  -0.000450   0.000097  89.000000  -0.000000  -0.002772  93.593500  -0.012402   0.000203  70.195100  -0.002411   0.000303  88.996000  -5.006810  -0.089596  93.107900  -0.001775  -0.013341  69.830900  -0.001934   0.001380  88.984600 -10.005000  -0.176331 110.000000  -0.000254   0.003285  80.000000   0.003804   0.002452   3.141730  14.427400   2.852790   1.389080   0.052157  -1.944140  -2.211360  -3.772750   0.236554   0.000000   0.000000   0.000000   3.204990  12.273000  -1.109200  -1.227790   2.386920   0.164295  -0.159086  -3.870010   1.665610  -0.000000   0.000000  -0.000000
 -0.892560  89.545100   0.678660  -3.346780 -11.370300  -3.850920   0.793821   6.716820  -1.705210   1.808930  13.406100  -3.541560   2.695880  -0.190066   0.008825   4.433000  -0.382943   8.509640   0.616803   2.891180   0.686594 -74.288200  19.372700  -7.648500  -3.406320  -6.933400 -13.013900  11.851200  -6.049770  -1.534300  41.799500  26.300700 -63.436100 -16.648700   0.000000   0.000000  -3.324350   0.002012  -0.000000 -25.404900   5.376350 -11.160200 -21.216000   0.006187   0.001566 -14.850900  -0.002721   0.009898 -27.956100  -0.387207   0.729685 -31.696900  -0.005049   0.005868 -21.112800  -0.005252   0.001662 -27.883700  -0.386251   0.730183 -31.240700  -0.005768   0.004263 -20.806300  -0.004576   0.001140 -29.293000  -0.404182   0.720405 -43.943400  -0.005774   0.008750 -29.266300  -0.005693  -0.000000   3.645230   2.993960   5.214090  39.298400  -0.680646  34.970200 -35.306700 -36.341200  89.761800 -48.054100  31.510100  18.448600 -54.600600  43.118900  86.128500 -19.491300  -0.000588  -0.006833 -14.745700   0.000484  -0.003063   4.105220   0.028640   0.396720   3.359030   0.000690   0.000261   2.351340  -0.000430   0.000039  89.000000   0.000000  -0.002610  93.912800  -0.012558   0.000192  70.434600  -0.002539   0.000282  88.996000  -5.006860  -0.089613  93.151800  -0.001768  -0.013498  69.863800  -0.001935   0.001385  88.984600 -10.005000  -0.176326 110.000000  -0.000237   0.003283  80.000000   0.003815   0.002467   3.139400  14.428800   2.836060   1.391070   0.028499  -1.938050  -2.221720  -3.759110   0.273182   0.000000   0.000000  -0.000000   3.198150  12.264700  -1.102430  -1.210850   2.373540   0.116615  -0.163357  -3.858690   1.731050  -0.000000   0.000000  -0.000000
 -0.908396  89.545300   0.667104  -3.342830 -11.367200  -3.871800   0.790862   6.703840  -1.705070   1.802470  13.380200  -3.540510   2.696340  -0.175636   0.007831   4.432410  -0.353937   8.461940   0.607791   2.894860   0.680526 -74.284300  19.378100  -7.634650  -3.391640  -6.949150 -12.977900  11.868700  -6.057570  -1.556660  41.779100  26.263100 -63.403100 -16.631500   0.000000   0.000000  -3.315760   0.001933  -0.000000 -25.391500   5.379770 -11.172000 -21.205700   0.006431   0.001568 -14.844000  -0.002585   0.010171 -27.956700  -0.372945   0.702840 -31.690700  -0.005051   0.005866 -21.106000  -0.005253   0.001663 -27.883900  -0.372008   0.703328 -31.227900  -0.005770   0.004264 -20.797800  -0.004576   0.001143 -29.290500  -0.389294   0.693907 -43.939200  -0.005772   0.008750 -29.263500  -0.005692   0.000000   3.634820   2.993380   5.197140  39.270100  -0.729088  34.969200 -35.283900 -36.321500  89.782200 -47.793200  31.596300  18.195300 -54.689900  43.070800  86.013700 -19.512000  -0.000583  -0.006921 -14.756000   0.000488  -0.003073   3.975400   0.042857   0.624851   3.252870   0.000709   0.000261   2.277010  -0.000410   0.000000  89.000000   0.000000  -0.002450  94.195900  -0.012713   0.000185  70.647000  -0.002666   0.000260  88.996000  -5.006910  -0.089630  93.167400  -0.001761  -0.013653  69.875500  -0.001935   0.001390  88.984600 -10.005000  -0.176321 110.000000  -0.000221   0.003282  80.000000   0.003824   0.002486   3.135680  14.430200   2.817920   1.392970   0.003386  -1.926790  -2.229730  -3.739890   0.306433  -0.000000   0.000000   0.000000   3.190360  12.255300  -1.093790  -1.193660   2.366950   0.067018  -0.165636  -3.853250   1.796910  -0.000000   0.000000   0.000000
 -0.924393  89.545600   0.656210  -3.338960 -11.366400  -3.894090   0.785997   6.690750  -1.704790   1.792130  13.354200  -3.539060   2.696960  -0.164694   0.006876   4.432460  -0.331796   8.417880   0.597247   2.901950   0.674078 -74.278900  19.365400  -7.615950  -3.376720  -6.947000 -12.957900  11.907000  -6.110650  -1.581350  41.746600  26.239800 -63.396300 -16.607100   0.000000   0.000041  -3.303540   0.001890  -0.000000 -25.394600   5.381650 -11.174800 -21.208600   0.025162   0.001570 -14.846100   0.016617   0.004493 -27.957600  -0.345410   0.650958 -31.693200  -0.005050   0.005864 -21.107700  -0.005254   0.001661 -27.884500  -0.344569   0.651395 -31.242700  -0.005773   0.004265 -20.807600  -0.004576   0.001145 -29.296200  -0.360635   0.642647 -43.947300  -0.005772   0.008751 -29.268900  -0.005692  -0.000000   3.622700   2.993010   5.178260  39.245000  -0.751245  34.966100 -35.295900 -36.319400  89.841700 -47.721400  31.635600  18.045200 -54.721500  42.991500  85.837200 -19.498100  -0.000581  -0.007006 -14.749100   0.000490  -0.003083   3.769740   0.065575   1.010200   3.084730   0.000729   0.000232   2.159300  -0.000412  -0.000000  89.000000   0.000000  -0.002292  94.276900  -0.012881   0.000174  70.707700  -0.002799   0.000230  88.996000  -5.006960  -0.089645  93.144000  -0.001750  -0.013810  69.858000  -0.001931   0.001386  88.984600 -10.005000  -0.176318 110.000000  -0.000207   0.003285  80.000000   0.003830   0.002535   3.132370  14.429000   2.802070   1.394960   0.001688  -1.915480  -2.233490  -3.731190   0.334867  -0.000000   0.000000   0.000000   3.183870  12.240000  -1.078530  -1.179440   2.374920   0.019102  -0.165832  -3.854070   1.858240  -0.000000   0.000000  -0.000000
